<svg width="21" height="22" viewBox="0 0 21 22" fill="none" xmlns="http://www.w3.org/2000/svg">
<path d="M1.49579 10.4445V18.3172H4.82879L4.99709 18.337C8.09139 19.0586 10.1418 19.5789 11.1637 19.9012C12.5211 20.3291 13.0271 20.4336 13.9478 20.4952C14.6364 20.5425 15.4185 20.2774 15.7749 19.9144C15.9718 19.7142 16.1192 19.3028 16.1775 18.6648C16.1896 18.531 16.2374 18.4029 16.316 18.294C16.3945 18.185 16.501 18.0992 16.6241 18.0455C16.898 17.9267 17.1257 17.7331 17.316 17.4515C17.492 17.1941 17.6064 16.7145 17.6273 16.0204C17.631 15.8928 17.6671 15.7682 17.7324 15.6585C17.7976 15.5488 17.8898 15.4576 18.0002 15.3934C18.6404 15.0227 18.9572 14.6047 19.0232 14.1141C19.0958 13.5718 18.9198 12.9613 18.4589 12.2661C18.3507 12.1031 18.3105 11.9043 18.3466 11.712C18.3828 11.5197 18.4925 11.3491 18.6525 11.2365C19.0936 10.9263 19.3356 10.4951 19.3961 9.8835C19.4929 8.9089 18.8714 8.18841 17.4645 8.0443C16.2114 7.92037 14.9463 8.02586 13.7311 8.35561C13.5932 8.39163 13.448 8.38753 13.3124 8.3438C13.1768 8.30007 13.0565 8.21851 12.9656 8.10873C12.8748 7.99896 12.8172 7.86552 12.7997 7.72413C12.7821 7.58274 12.8053 7.43927 12.8665 7.3106C13.4165 6.1468 13.7223 5.1865 13.7938 4.4429C13.8873 3.4562 13.6596 2.7412 13.1272 2.1516C12.7235 1.705 12.0778 1.4498 11.8358 1.5026C11.5168 1.5708 11.3089 1.7556 11.0383 2.4024C10.8788 2.7852 10.8018 3.1108 10.6698 3.8709C10.5433 4.5925 10.474 4.91811 10.3299 5.3449C9.89539 6.6385 8.82949 7.9794 7.39839 8.9045C6.3954 9.55209 5.30838 10.0591 4.16769 10.4115C4.09642 10.4335 4.02226 10.4446 3.94769 10.4445H1.49579ZM1.44959 19.8165C1.09429 19.8264 0.775288 19.7472 0.507988 19.5602C0.166988 19.3215 0.00638766 18.9453 0.00308766 18.5119L0.00638766 10.4566C-0.0310123 10.0276 0.0954876 9.6338 0.394688 9.3412C0.675188 9.0662 1.04149 8.9364 1.42869 8.9452H3.83219C4.80443 8.63542 5.73136 8.19821 6.58879 7.645C7.74159 6.8992 8.59079 5.83 8.91529 4.8664C9.02639 4.5342 9.08579 4.2592 9.19799 3.6124C9.34979 2.7445 9.44439 2.3408 9.66219 1.8216C10.1132 0.741405 10.705 0.213405 11.5212 0.036305C12.3242 -0.137495 13.4935 0.325605 14.2327 1.144C15.0522 2.0504 15.4141 3.1845 15.2799 4.58591C15.2227 5.1887 15.0555 5.863 14.7805 6.6143C15.7196 6.47744 16.6721 6.45675 17.6163 6.5527C19.824 6.7782 21.0637 8.2159 20.8833 10.0331C20.8041 10.8163 20.5203 11.4818 20.0374 12.0043C20.4433 12.7864 20.605 13.5597 20.5038 14.3143C20.3872 15.1833 19.9032 15.9071 19.098 16.4692C19.0353 17.2315 18.8604 17.8398 18.5502 18.2952C18.3058 18.6631 17.9869 18.9757 17.6141 19.2126C17.4953 19.965 17.2456 20.5535 16.8375 20.9671C16.161 21.6557 14.9521 22.066 13.8477 21.9912C12.7994 21.9208 12.179 21.7932 10.716 21.3312C9.75129 21.0265 7.75369 20.5205 4.74299 19.8165H1.44849H1.44959ZM3.32069 10.1024C3.3204 10.004 3.33953 9.90649 3.37699 9.81548C3.41445 9.72448 3.46951 9.64176 3.53899 9.57207C3.60848 9.50237 3.69104 9.44708 3.78193 9.40935C3.87283 9.37162 3.97027 9.3522 4.06869 9.3522C4.16692 9.35249 4.26413 9.37213 4.35477 9.40998C4.44541 9.44784 4.52771 9.50318 4.59696 9.57284C4.66621 9.6425 4.72107 9.72513 4.75839 9.81599C4.79571 9.90685 4.81478 10.0042 4.81449 10.1024V18.5482C4.81463 18.6464 4.79543 18.7437 4.75797 18.8345C4.72051 18.9253 4.66554 19.0079 4.59618 19.0774C4.52682 19.147 4.44445 19.2022 4.35375 19.2399C4.26305 19.2777 4.16582 19.2972 4.06759 19.2973C3.96936 19.2972 3.87212 19.2777 3.78142 19.2399C3.69073 19.2022 3.60835 19.147 3.53899 19.0774C3.46964 19.0079 3.41466 18.9253 3.3772 18.8345C3.33975 18.7437 3.32054 18.6464 3.32069 18.5482V10.1024Z" fill="#4A4A4A"/>
</svg>
